<svg enable-background="new 0 0 500 500" height="500" viewBox="0 0 500 500" width="500" xmlns="http://www.w3.org/2000/svg"><path d="m450 430c0 11-9 20-20 20h-360c-11 0-20-9-20-20v-360c0-11 9-20 20-20h360c11 0 20 9 20 20z" fill="#006afe"/><g fill="#fff"><path d="m201.1 223.6c1.9.7 3.8 1.2 5.8 1.6 7 1.4 14.3 2.1 21.6 2.1 14.4 0 29-2.7 42.2-7.9 19.1-7.5 33.7-19.5 39-32s1.6-25.5-9.4-33.2c-10-7-21.1-10.5-33.1-10.5-16.6 0-34.1 6.6-51.8 19.8-3 2.2-6 4.6-9 7.2.2-5.9 1-11.7 1.9-15.9 1.9-8.6-3.5-17.2-12.2-19.1-1.1-.3-2.3-.4-3.5-.4-7.4 0-14 5.3-15.6 12.5-.1.4-2.1 9.6-2.6 21-.5 12.3.9 22.9 4.1 31.5-9.7 12.5-18.5 26.4-25.4 40.3-7.7 15.4-13.2 31-16 45-3.3 16.4-3 30.8.9 42.9 3.6 11.3 10.1 20.1 19.4 26.4s21.1 9.6 34.9 9.8h1.3c20.5 0 44.5-7.6 71.4-22.6 20.1-11.2 34.5-22.6 36.1-23.9 3.3-2.7 5.4-6.5 5.9-10.7s-.7-8.4-3.4-11.8c-3.1-3.8-7.6-6-12.5-6-3.6 0-7.2 1.2-10 3.5-.1.1-13 10.3-30.6 20.3-22.1 12.5-41.8 19.2-56.9 19.2-.2 0-.5 0-.7 0-14-.2-21.3-4.4-24.4-14-4.5-14 .6-38.5 13.3-63.9 5.4-10.7 12-21.4 19.3-31.2zm25.8-28.3c2.5-2.2 5.1-4.2 7.6-6.1 11.9-8.8 23.2-13.5 32.7-13.5 3.9 0 7.5.7 10.8 2.3-.9.9-2.1 2-3.7 3.2-8.8 6.8-25.5 14.1-45.7 14.1-.6 0-1.2 0-1.7 0z"/><path d="m362.3 256.7c-3-4.5-8-7.1-13.3-7.1-3.2 0-6.2.9-8.9 2.7l-18.3 12.2c-7.3 4.9-9.3 14.8-4.4 22.2 3 4.5 8 7.1 13.3 7.1 3.2 0 6.2-.9 8.9-2.7l18.3-12.2c7.3-4.9 9.3-14.8 4.4-22.2z"/></g></svg>